<svg width="32" height="32" viewBox="0 0 32 32" fill="none" xmlns="http://www.w3.org/2000/svg">
  <!-- Background circle with gradient -->
  <circle cx="16" cy="16" r="16" fill="url(#gradient)"/>
  
  <!-- Medical cross -->
  <path d="M16 6C16.8284 6 17.5 6.67157 17.5 7.5V14.5H24.5C25.3284 14.5 26 15.1716 26 16C26 16.8284 25.3284 17.5 24.5 17.5H17.5V24.5C17.5 25.3284 16.8284 26 16 26C15.1716 26 14.5 25.3284 14.5 24.5V17.5H7.5C6.67157 17.5 6 16.8284 6 16C6 15.1716 6.67157 14.5 7.5 14.5H14.5V7.5C14.5 6.67157 15.1716 6 16 6Z" fill="white"/>
  
  <!-- Pulse effect around cross -->
  <circle cx="16" cy="16" r="12" stroke="rgba(255,255,255,0.3)" stroke-width="0.5" fill="none">
    <animate attributeName="r" values="12;14;12" dur="2s" repeatCount="indefinite"/>
    <animate attributeName="opacity" values="0.3;0.1;0.3" dur="2s" repeatCount="indefinite"/>
  </circle>
  
  <!-- Gradient definition -->
  <defs>
    <linearGradient id="gradient" x1="0%" y1="0%" x2="100%" y2="100%">
      <stop offset="0%" style="stop-color:#14b8a6;stop-opacity:1" />
      <stop offset="100%" style="stop-color:#0d9488;stop-opacity:1" />
    </linearGradient>
  </defs>
</svg>